<?xml version="1.0" standalone="no"?>
<!DOCTYPE svg PUBLIC "-//W3C//DTD SVG 20010904//EN"
 "http://www.w3.org/TR/2001/REC-SVG-20010904/DTD/svg10.dtd">
<svg version="1.0" xmlns="http://www.w3.org/2000/svg"
 width="1280.000000pt" height="1098.000000pt" viewBox="0 0 1280.000000 1098.000000"
 preserveAspectRatio="xMidYMid meet">
<g transform="translate(0.000000,1098.000000) scale(0.100000,-0.100000)"
fill="#000000" stroke="none">
<path d="M6038 10973 c-120 -2 -218 -5 -218 -8 0 -2 36 -372 80 -822 76 -766
82 -820 104 -853 13 -19 332 -484 710 -1033 377 -549 686 -1001 686 -1003 0
-2 -559 -4 -1243 -4 l-1243 0 -197 -477 c-108 -263 -199 -485 -202 -494 -4
-10 373 -672 1050 -1844 581 -1005 1053 -1831 1048 -1835 -6 -6 -4223 -341
-5503 -437 -184 -14 -342 -28 -350 -30 -11 -4 6544 -857 6625 -863 6 0 174
-285 374 -633 201 -347 365 -633 366 -635 6 -8 1052 141 1061 151 7 7 107 179
224 382 118 204 223 386 236 406 l22 35 214 -28 c117 -15 243 -30 279 -34 l66
-7 347 608 c190 334 346 611 346 614 -1 3 -101 51 -223 105 -122 55 -226 103
-231 107 -4 4 24 64 64 134 l72 126 139 -203 c77 -112 148 -214 158 -228 11
-14 -35 105 -101 264 -97 233 -118 293 -110 310 6 14 2056 3570 2108 3657 2 4
-142 195 -319 425 l-324 419 -1683 5 -1684 5 -777 1860 -776 1860 -489 0
c-269 0 -587 -1 -706 -2z"/>
<path d="M4793 9628 c-556 -728 -1861 -2438 -2901 -3801 l-1891 -2477 354
-606 c195 -334 355 -608 357 -609 2 -2 306 214 676 479 l674 482 1767 3705
c972 2037 1815 3804 1873 3927 59 122 105 222 103 222 -2 0 -457 -595 -1012
-1322z"/>
</g>
</svg>
